<svg xmlns="http://www.w3.org/2000/svg" enable-background="new 0 0 823 823" viewBox="0 0 823 823"><path fill="#cce9ff" d="M690.7 609.5c101.6-98.8 106.8-250.3-76.6-420.2-26.6-24.7-39.6-59.1-66-77.6-80-56.1-192.3-44.7-263 38.6-38.7 45.6-54.3 108.2-94.5 152.9-45.1 50.2-99.1 99-119.6 167.4-13.6 45.3-11.3 94.7 4.2 139 222.8 39.6 433.4 51.8 615.5-.1z"/><path fill="#2a94f4" d="M609.7 514s-13.2 80.6 36.4 99.5c49.6 18.9 37.1-20.3 37.1-20.3s19.1-6.6-36.8-33.8c-26.3-12.8-36.7-45.4-36.7-45.4z"/><path fill="#0e538c" d="M674.1 618.6s70 .5 85.3-93.5c15.2-94 50.7-111.8 50.7-111.8s-152.2 17.8-136 205.3z"/><path fill="#ffbe55" d="M672 616.1c16.3 24.2 57-49.7 44-97.4-13-47.8-38.5-76.5-38.8-110.3 0-.1-85.5 88.7-5.2 207.7z"/><path fill="#2a94f4" d="M18.9 534.2s17.7 79.7 70.8 78.8c53.1-.9 26.9-32.7 26.9-32.7s15.3-13.3-46.7-17.7c-29.2-2-51-28.4-51-28.4z"/><path fill="#ffbe55" d="M113 608.8s53.7-16.8 37.1-76.3c-16.5-59.5 5.2-78.7 5.2-78.7s-110.9 47.7-42.3 155z"/><path fill="#0e538c" d="M107.6 606.8c24.1 16.4 34.5-67.3 4.6-106.8-29.8-39.5-64.2-56.7-77-88 0 0-46.4 114.3 72.4 194.8z"/><path fill="#0b4870" d="m380.1 609.4 12.6 16.2s-16.9 18.8-11.3 17.1c5.7-1.8 36.8-26.8 36.8-26.8s-15-20.2-14.8-20.3c.3-.1-23.3 13.8-23.3 13.8z"/><path fill="#0b4870" d="m361.6 487.9 53.3 112.3-33.9 19.1-55.4-100.6 3.5-33.1z"/><path fill="#d3d3d3" d="m499.7 520.6 39.9 135.9 4.6-.1-30.7-136.6zM427.6 522.8l-30.4 134.5 5.4-.1 40.7-134.8zM463.1 519l4.7 136.7 6.4-.1 2.8-136.4z"/><path fill="#d3d3d3" d="m426.2 577 91.1-4.8.6 9.4-98.6 5.9z"/><path fill="#d3d3d3" d="m427.5 522.8-1.4 6.9 15.1-.3 1.9-6.9zM463.2 522.3l.2 6.6 13.4-.3.2-7.9z" opacity=".15"/><path fill="#d3d3d3" d="m465 574.5.3 9.8-5.8.1-2.2-9.5 9.2-.5M476.8 574.4v9.7l4.4-.3 1.2-9.7z" opacity=".5"/><path fill="#ffbe55" d="M396.2 513c12.9-6.3 65.2-2.9 65.2-2.9s-14.8-183.3 4.3-184.8 62.3-15.2 70.1 12.5c8.2 29.1-2.9 184.9-13.8 183.4-24.9-3.4-101.9 5.5-125.1 0-5.9-1.4-.7-8.2-.7-8.2z"/><path fill="#eaa43f" d="M519.4 341c.1 0 .4.5 1.1 1.5.3.5.7 1.1 1.1 1.9.4.8.8 1.7 1.3 2.7 1.8 4.1 3.7 10.5 4.5 18.5.9 8 .9 17.6.8 28.2-.2 10.6-.8 22.2-1.8 34.4s-2.1 23.8-3.2 34.3c-1.1 10.5-2.2 20-3.6 27.9-1.4 7.9-3.3 14.2-4.8 18.4-1.5 4.2-2.7 6.4-2.8 6.4-.2-.1.6-2.4 1.8-6.7 1.2-4.3 2.7-10.5 3.9-18.4 1.2-7.9 2.1-17.3 3-27.8 1-10.5 2.1-22.1 3-34.2.9-12.1 1.7-23.7 2-34.3.3-10.5.5-20-.2-27.9-.6-7.9-2.1-14.2-3.6-18.3-1.5-4.3-2.7-6.5-2.5-6.6z"/><path fill="#ffba98" d="m325.7 406.9-4.8-2.5s-3.1-1.1-8.1-4.1c-1.3-.8-2.5-1.8-3.4-2.9-1.2-1.4-2.7-3.3-3.3-4.6-.7-1.6-2.8-1.7-3.2-.3-.3 1.4 1.4 5.8 5.4 9.7 4 3.9-4.4 2.7-7.5 2.4-3.1-.4-12.6-1.1-13.4-.2-1.1 1.2.1 2.8 3.2 3.1 3.1.3 12.3 1.9 12.2 3.5-.1 1.6-15.8-.5-15.8-.5s-3.3-1-3.5.9c-.4 3.3 16.3 4.4 17.9 4.4 1.1 0 1 1.8-.2 1.7-1.2-.1-15.6-2.5-16 .9-.3 2.6 13.7 1 16.6 3.1 2.9 2.1-10.9.1-11.1 2.6-.1.9 0 1.6 7.9 1.7 8.1 0 29.9-3.5 29.9-3.5l-3.1-15.4"/><path fill="#f7f7f7" d="M432.8 341.6s-40.9 55-50.3 57.4c-9.4 2.5-63.1 5.7-63.1 5.7l-4.8 23.2s68.7 3.6 83.8-7.5c23.8-17.5 48.7-57.9 48.7-57.9.8-13.3-4.3-19.9-14.3-20.9z"/><path fill="#0e538c" d="m321.6 629.6 2.6 20.4s-24.2 7.6-18.4 9c5.8 1.4 45.3-4.3 45.3-4.3s-2.7-25-2.4-25c.3-.1-27.1-.1-27.1-.1zM487.6 444.4s22.8 48.7-22.2 65.5l-24-52.1 46.2-13.4z"/><path fill="#0e538c" d="M456.3 457.4s-129.8-35.7-144.4-5.7c-14.6 29.9 2.8 185.8 2.8 185.8l40.6-4.3s-6.8-136.9 0-141.7c6.8-4.8 100.3 18.8 110.1 18.4 23.9-1 40.8-45.6-9.1-52.5z"/><path fill="#f7f7f7" d="M459.1 326.9c-17 .4-30.9 13.9-31.7 30.9-.7 14.2.7 33.6-3.1 50.7-2 8.8-13.5 44.2-13.5 44.2l11.5 1.9c17.8 3 36.1 2.1 53.5-2.6l13.1-3.5s7.6-39.4 11.8-76.4c3.6-30.9-2.3-42.9-21.1-45.6l-20.5.4z"/><path fill="#b97a59" d="M450.1 329.1c.6-3-.4-15.6-.4-15.6s-11.5-1.5-11.9-12.9c-.5-11.4.8-37.7.8-37.7l21.2-9.8 22.7 17.9 2.1 12.6-5.3 15-2.4 28.6-26.8 1.9z"/><path fill="#a0654b" d="M449.7 313.5s7.7.2 15.2-4.8c0 0-3.6 8.3-15 7.6l-.2-2.8z"/><path fill="#b97a59" d="m424.6 445.8-5.4-.3s-3.3.3-9.1-.4c-1.5-.2-3-.6-4.4-1.2-1.7-.8-3.9-1.9-4.9-2.8-1.3-1.2-3.3-.4-3 1.1s3.7 4.7 9 6.6c5.3 1.9-2.9 4.4-5.8 5.3-2.9.9-11.9 4.3-12.2 5.4-.5 1.6 1.3 2.5 4.2 1.5 3-1 11.9-3.5 12.5-2 .5 1.5-14.5 6.1-14.5 6.1s-3.4.5-2.8 2.3c1.1 3.2 16.6-2.9 18.1-3.5 1-.4 1.7 1.2.6 1.6-1.2.4-15.2 4.3-14.1 7.5.8 2.5 12.9-4.9 16.4-4.1 3.5.7-9.8 4.7-9 7 .3.9.7 1.5 7.9-1.8 7.4-3.4 25.6-15.7 25.6-15.7l-9.3-12.7"/><path fill="#d3d3d3" d="M440.9 456.3s25.5-7.3 41.7-22.4c12.9-12 12.7-23.2 12.7-23.2l6.1-46.8-60.5 92.4z"/><path fill="#f7f7f7" d="M476.4 330.5s-4.9 68.4-11.5 75.5c-6.6 7.1-50.1 38.7-50.1 38.7l8.5 22.2s59.8-34 66.6-51.5c8.1-21.2 9.6-54.2 9.8-68.3.1-6-2.3-11.8-7-15.5-4.9-3.9-10.4-4.1-16.3-1.1z"/><path fill="#eaa43f" d="M509.6 514.9c-.2.8-12-1.1-26.8-2.3-14.7-1.2-26.8-1.3-26.8-2.1 0-.7 12.1-1.8 27-.6 15 1.3 26.8 4.3 26.6 5zM505.1 394.7c-.1.1-.6 0-.8-.8-.2-.7.2-1.9 1.2-2.6.5-.4 1.3-.7 2.2-.6.5.1.9.2 1.3.4s.7.5 1 .8c1.2 1.4 1.5 3.3.8 5.2-.7 1.8-2.1 3.1-3.8 3.5-.4.1-.9.1-1.3.1s-.9-.2-1.2-.4c-.7-.4-1.2-1-1.4-1.6-.5-1.1-.4-2.3.1-2.9.4-.6.9-.6 1-.5.1.1 0 .5 0 .9s.1 1 .6 1.5c.2.3.5.5.8.6.2 0 .3.1.4 0 .2 0 .4 0 .5-.1.7-.2 1.6-1 1.9-2 .3-.9.2-2.1-.2-2.7-.5-.7-.9-.8-1.6-.6-.6.2-1 .7-1.2 1-.2.3-.1.7-.3.8z"/><path fill="#d3d3d3" d="M474 352.1c.2 0 .3 1.6.3 4.4 0 2.8-.1 7-.4 12-.4 5.1-1 11.2-2.5 17.8-1.5 6.6-4.1 13.8-8.4 20.5-4.4 6.6-10 11.8-15.3 16-5.3 4.2-10.4 7.5-14.6 10.4-8.4 5.7-13.2 9.7-13.4 9.4-.1-.1 1-1.3 3.1-3.2 2.1-1.9 5.3-4.5 9.4-7.6 4.1-3.1 9-6.5 14.2-10.7 5.1-4.2 10.5-9.3 14.6-15.6 4.1-6.4 6.7-13.3 8.2-19.7 1.6-6.4 2.4-12.4 3-17.4 1.1-10 1.5-16.3 1.8-16.3zM460.2 330.8l.9-10.2 16.6-3 5 10.8zM449.7 319.4l6.6 1.2v10.2l-8.3-1.7 2-11.5M429.8 367c0 10.7-1.3 21.3-3.9 31.7"/><path fill="#254368" d="M174 438.9h418.1v13.7H174zM206.7 452.6 174 658.2l16.3.3 56.2-205.9z"/><path fill="#254368" d="m561.7 450.3 19 212.2h-15.3l-41.1-203.4-2.1-15.1 39.5 6.3"/><path fill="#000c38" d="m523.4 452.6 1.5 9.4 37.7-1.4-.7-8zM206.7 452.6l-1.5 9.7 38.9-1.1 2.4-8.6z" opacity=".3"/><path fill="#d3d3d3" d="m236.6 362.8 26.1 76.1h117.9l-.9-3.9-47.7-1.5-21.9-70.7z"/><path fill="#f7f7f7" d="M288.9 399.6c.8 3.1-.6 6.2-3 6.8-2.4.6-5-1.4-5.8-4.5-.8-3.1.6-6.2 3-6.8 2.4-.6 5 1.4 5.8 4.5z"/><path fill="#2a94f4" d="M525.1 415.2c-3.5-11.9-5.1-28.6-6-40.9-.2-2.4-.3-5 .6-7.2.9-2.3 3-4.3 5.4-4.2 2 0 3.9 1.5 4.9 3.2 1 1.8 1.4 3.8 1.8 5.8 2.2 11.5 4.5 22.9 6.7 34.4 2.1-4.1 5-7.8 8.3-10.9 1.5-1.4 3.7-2.8 5.5-1.8 1.6.9 1.8 3.1 1.7 5-.2 5.6-.9 11.2-2.1 16.7"/><path fill="#0e538c" d="M520.3 414s-5.9 23.3 17.9 24.4c21.9 1 16.7-24.4 16.7-24.4h-34.6z"/><path fill="#0b4870" d="M464.9 273.5s.2.1.5.3c.3.2.8.5 1.4 1 1.1.9 2.5 2.7 2.9 5.3.2 1.3.2 2.8-.3 4.2-.5 1.5-1.3 2.9-2.7 4.1-.6.6-1.4 1.1-2.2 1.5-.8.4-1.7.7-2.7.8-1.9.3-3.9-.1-5.7-1-1.8-1-3.2-2.5-4-4.2-.4-.9-.7-1.8-.8-2.7-.1-.9-.1-1.8 0-2.7.2-1.7 1-3.3 2-4.5 1-1.2 2.2-2 3.4-2.6 2.4-1.1 4.7-.8 6-.4.7.2 1.2.4 1.5.6.5.2.7.3.7.3 0 .1-.7-.4-2.1-.7-1.4-.3-3.5-.5-5.8.6-1.1.5-2.3 1.3-3.2 2.5-.9 1.2-1.6 2.6-1.8 4.2-.1.8-.1 1.7 0 2.5.1.9.4 1.7.8 2.5.7 1.6 2.1 3 3.7 4 1.7.9 3.6 1.2 5.4 1 .9-.1 1.7-.4 2.5-.7.8-.4 1.5-.8 2.1-1.4 1.3-1.1 2.1-2.5 2.6-3.9s.5-2.8.3-4c-.4-2.5-1.7-4.3-2.7-5.2-1.1-1-1.8-1.3-1.8-1.4zM439.4 271.7h.6c.4 0 .9.1 1.6.3 1.4.4 3.4 1.3 5 3.4.8 1.1 1.4 2.4 1.6 3.9.2 1.5.1 3.2-.5 4.9-.3.8-.8 1.6-1.3 2.3-.6.7-1.2 1.4-2 1.9-1.6 1.1-3.5 1.7-5.6 1.6-2-.1-3.9-.8-5.4-2-.8-.6-1.4-1.3-1.9-2-.5-.8-.9-1.6-1.2-2.4-.6-1.7-.5-3.4-.2-4.9.3-1.5 1.1-2.8 1.9-3.8 1.7-2 3.8-2.8 5.2-3.1.7-.1 1.3-.2 1.7-.1.3-.1.5 0 .5 0 0 .1-.8 0-2.2.3-1.4.3-3.4 1.2-5 3.1-.8 1-1.5 2.2-1.8 3.7-.3 1.4-.3 3.1.2 4.6.2.8.6 1.6 1.1 2.3.5.7 1.1 1.4 1.8 1.9 1.4 1.1 3.2 1.8 5.1 1.9 1.9 0 3.8-.5 5.2-1.5.7-.5 1.4-1.1 1.9-1.8s1-1.4 1.3-2.2c.6-1.5.8-3.1.6-4.6-.2-1.5-.8-2.7-1.5-3.8-1.5-2.1-3.4-3.1-4.7-3.5-1.2-.4-2-.4-2-.4z"/><path fill="#0b4870" d="M447.9 281.7c0-.1.9-.2 2-.2s1.9.2 1.9.3c0 .1-.9.2-2 .2s-2-.1-1.9-.3zM469.2 282.5c0-.1 2.1-.2 4.7-.1s4.7.3 4.7.4c0 .1-2.1.2-4.7.1s-4.7-.3-4.7-.4z"/><path fill="#0e538c" d="M478.5 300.5c6.1-6.7 6.7-16.4 6.8-25.5.1-4.4-.2-8.9-2.4-12.7-2.2-3.7-6-6.1-9.9-7.8-6-2.6-12.8-3.8-19.2-2.6s-12.5 5-15.7 10.7c0 0 29.7-.6 31.7.6s8.1 5.5 7.6 10.8c-.5 5.3-2 13.1-2 13.1l4.8-.7s-.4-7.2 1.7-7c2 .4-3.4 21.1-3.4 21.1z"/><path fill="#b97a59" d="M479.9 288.2c.2.8 1.1 1.4 2 1.3.9 0 1.7-.5 2.4-1 1.4-1.1 2.6-2.7 2.8-4.5.2-1.8-.6-3.8-2.1-4.7-1.6-.9-3.9-.5-4.8 1.1l-.3 7.8z"/></svg>